<svg width="30" height="30" viewBox="0 0 30 30" fill="none" xmlns="http://www.w3.org/2000/svg">
<path d="M13.425 3.08049C10.785 3.43549 8.365 4.63049 6.5 6.50049C4.615 8.38049 3.425 10.8005 3.075 13.4655C2.975 14.2355 2.975 15.7155 3.075 16.4855C3.255 17.8205 3.635 19.0905 4.23 20.2905L4.605 21.0555L3.805 23.4655C3.35 24.8305 3 25.9555 3 26.0605C3 26.2655 3.175 26.4505 3.37 26.4505C3.425 26.4505 4.535 26.1005 5.83 25.6755L8.185 24.8955L8.63 25.1755C9.28 25.5905 10.38 26.1105 11.135 26.3705C12.44 26.8155 13.59 27.0005 15.025 27.0005C16.46 27.0005 17.49 26.8355 18.81 26.3955C23.185 24.9455 26.32 21.1305 26.925 16.5355C27.025 15.7605 27.025 14.2405 26.925 13.4655C26.75 12.1305 26.36 10.8555 25.775 9.67549C23.98 6.05049 20.55 3.60549 16.535 3.07549C15.805 2.98049 14.13 2.98049 13.425 3.08049ZM11.475 13.9455C11.705 14.0455 11.98 14.3405 12.08 14.5805C12.12 14.6755 12.15 14.8605 12.15 15.0005C12.15 15.3105 12.065 15.5205 11.845 15.7755C11.62 16.0305 11.345 16.1505 10.975 16.1505C10.35 16.1505 9.835 15.6305 9.835 15.0005C9.835 14.3705 10.35 13.8505 10.975 13.8505C11.155 13.8505 11.355 13.8905 11.475 13.9455ZM15.44 13.9305C15.865 14.1055 16.15 14.5305 16.15 15.0005C16.15 15.6455 15.645 16.1505 15 16.1505C13.99 16.1505 13.47 14.9405 14.165 14.2055C14.485 13.8705 15.02 13.7555 15.44 13.9305ZM19.475 13.9455C19.705 14.0455 19.98 14.3405 20.08 14.5805C20.12 14.6755 20.15 14.8605 20.15 15.0005C20.15 15.8905 19.185 16.4405 18.415 16.0005C17.975 15.7505 17.73 15.2005 17.85 14.7505C17.995 14.2105 18.445 13.8505 18.975 13.8505C19.155 13.8505 19.355 13.8905 19.475 13.9455Z" fill="#FFCF5C"/>
</svg>
