<svg width="24" height="24" viewBox="0 0 24 24" fill="none" xmlns="http://www.w3.org/2000/svg">
<path d="M14.5655 5.11879L14.5651 5.11919C14.4737 5.24113 14.3686 5.42826 14.2773 5.61819C14.1859 5.80839 14.1045 6.00916 14.063 6.16023L14.0628 6.16098C14.0241 6.30605 13.9979 6.55908 13.9867 6.80157C13.9756 7.04302 13.9784 7.29215 14.0038 7.42976C14.0038 7.43 14.0039 7.43025 14.0039 7.4305L14.0234 7.54531L11.6393 8.73767L11.6392 8.73773L9.25162 9.93534L9.0275 9.72281L9.02721 9.72253C8.71534 9.42914 8.28037 9.17891 7.83494 9.03898C7.65064 8.9796 7.37341 8.94436 7.09945 8.93353C6.82478 8.92266 6.54022 8.93582 6.34076 8.97948C5.16103 9.23039 4.25214 10.1055 3.97509 11.2655C3.87497 11.681 3.87497 12.3044 3.97509 12.7199C4.22272 13.7549 4.96967 14.5597 6.00424 14.917L6.00494 14.9172C6.16824 14.9722 6.26722 15.005 6.3961 15.0221C6.52191 15.0387 6.67479 15.0403 6.94771 15.0403C7.44992 15.0403 7.56569 15.0298 7.81612 14.9539L7.8176 14.9534L7.81759 14.9534C8.27619 14.8066 8.70772 14.5639 9.02726 14.2628L9.0275 14.2626L9.25162 14.0501L11.6392 15.2477L11.6393 15.2477L14.0234 16.4401L14.0039 16.5549C14.0039 16.5552 14.0038 16.5554 14.0038 16.5556C13.9784 16.6933 13.9756 16.9424 13.9867 17.1838C13.9979 17.4263 14.0241 17.6794 14.0628 17.8244L14.063 17.8252C14.1045 17.9762 14.1859 18.177 14.2769 18.3663C14.3676 18.5552 14.4719 18.7407 14.5618 18.8593M14.5655 5.11879L14.5619 18.8595C14.5618 18.8594 14.5618 18.8594 14.5618 18.8593M14.5655 5.11879C15.0038 4.54029 15.6052 4.1376 16.2958 3.96394L14.5655 5.11879ZM14.5618 18.8593C14.875 19.2758 15.349 19.6585 15.8013 19.8588L15.8015 19.8589C16.3582 20.1039 17.1557 20.1695 17.7759 20.0218L17.7761 20.0218C18.6518 19.8111 19.4156 19.1947 19.8073 18.3853L19.8076 18.3846C19.9108 18.1672 19.9785 17.9964 20.0219 17.8077C20.0651 17.6197 20.0832 17.4184 20.0922 17.1412C20.1067 16.7334 20.0997 16.5947 20.036 16.3251L20.036 16.3248C19.8662 15.6158 19.4635 15.0028 18.8666 14.5532C18.748 14.4633 18.5625 14.3591 18.3738 14.2683C18.1845 14.1773 17.9838 14.0959 17.8328 14.0543L17.8317 14.054C17.6515 14.0066 17.3974 13.9794 17.1455 13.9726C16.8935 13.9658 16.6343 13.9792 16.4438 14.0169L16.4429 14.0171C15.805 14.1499 15.2401 14.4638 14.7901 14.9434L14.7895 14.9441L14.5905 15.1602L12.2647 13.9935L12.2645 13.9934C11.6056 13.6647 11.0068 13.363 10.5727 13.1412C10.3556 13.0303 10.1801 12.9396 10.059 12.8755C10.0056 12.8473 9.96328 12.8245 9.93283 12.8076C9.9342 12.8004 9.93569 12.7928 9.93729 12.7846C9.94699 12.7352 9.96028 12.6705 9.97451 12.6029C9.97452 12.6029 9.97452 12.6028 9.97453 12.6028L14.5618 18.8593ZM20.0359 7.66071L20.036 7.66031C20.0997 7.39076 20.1066 7.24862 20.0958 6.8273L20.0958 6.82647C20.0814 6.40045 20.0629 6.26796 19.9763 6.01179L19.9763 6.01167C19.6447 5.03521 18.9607 4.35138 17.9745 4.01273L17.9741 4.01258C17.8494 3.97042 17.7559 3.9441 17.632 3.92818C17.5109 3.91264 17.3629 3.90728 17.1297 3.90372C17.1295 3.90372 17.1293 3.90371 17.1292 3.90371L20.0359 7.66071ZM20.0359 7.66071C19.8257 8.5351 19.2681 9.25597 18.4774 9.66619L20.0359 7.66071ZM18.5109 7.77624L18.5106 7.77683C18.4549 7.88348 18.3469 8.01797 18.2176 8.14473C18.0887 8.27109 17.9463 8.38221 17.827 8.44594L17.8265 8.44621C17.1813 8.79578 16.3933 8.67293 15.8552 8.13822C14.9534 7.2325 15.3041 5.77902 16.547 5.33049L18.5109 7.77624ZM18.5109 7.77624C19.0323 6.79411 18.5511 5.62829 17.5138 5.32159M18.5109 7.77624L17.5138 5.32159M8.19913 13.1364C9.04221 12.2155 8.63809 10.7413 7.44335 10.3733L7.44327 10.3733C6.75793 10.1615 5.96755 10.4441 5.55572 11.0549C5.44349 11.2251 5.38159 11.3415 5.34563 11.471C5.30926 11.602 5.29748 11.7532 5.29748 11.9963V12.4231L5.43706 12.7057C5.43707 12.7057 5.43707 12.7057 5.43708 12.7057C5.98239 13.8033 7.3915 14.0183 8.19913 13.1364ZM8.19913 13.1364L8.27289 13.2039L8.19913 13.1364ZM17.5138 5.32159C17.3912 5.28615 17.2049 5.26761 17.0165 5.26935C16.827 5.2711 16.6511 5.29324 16.5472 5.33041L17.5138 5.32159ZM9.97453 11.3826L9.87667 11.4032L9.97452 11.3826C9.97452 11.3826 9.97452 11.3826 9.97453 11.3826ZM9.93729 11.2008C9.94699 11.2502 9.96028 11.3149 9.97451 11.3825L17.1824 10.0096C17.1823 10.0096 17.1823 10.0096 17.1823 10.0096C16.2494 10.0538 15.4281 9.72078 14.7902 9.04209L14.7895 9.04134L14.5905 8.82523L12.2647 9.99194L12.2645 9.99204C11.6056 10.3207 11.0068 10.6224 10.5727 10.8442C10.3556 10.9551 10.1801 11.0459 10.059 11.1099C10.0056 11.1381 9.96328 11.1609 9.93283 11.1778C9.9342 11.185 9.93569 11.1927 9.93729 11.2008ZM17.4526 15.3944L17.4524 15.3944C17.34 15.3651 17.1883 15.3494 17.0343 15.3494C16.8802 15.3494 16.7318 15.3651 16.6255 15.3941C15.8817 15.6004 15.3558 16.2802 15.3524 17.0307C15.3524 17.4716 15.5023 17.844 15.8324 18.1946L15.8331 18.1953C16.1596 18.5489 16.5575 18.7169 17.0525 18.7169C17.9974 18.7135 18.7208 17.99 18.7243 17.0447C18.7243 16.5431 18.5568 16.1518 18.1954 15.8139C17.9527 15.5883 17.7386 15.4685 17.4526 15.3944Z" fill="white" stroke="white" stroke-width="0.2"/>
</svg>
