<svg width="19" height="20" viewBox="0 0 19 20" fill="none" xmlns="http://www.w3.org/2000/svg">
<path d="M11.332 0H7.33203C3.48203 0 0.332031 3.14869 0.332031 6.99708V9.99584C0.332031 12.6947 1.90703 15.1687 4.33203 16.3182V19.6668C4.33203 19.9667 4.70703 20.1166 4.90703 19.8917L7.80703 16.9929H11.332C15.182 16.9929 18.332 13.8442 18.332 9.99584V6.99708C18.332 3.14869 15.182 0 11.332 0ZM13.957 13.1195L12.932 14.1191C11.857 15.1687 9.08203 13.9692 6.63203 11.4702C4.18203 8.97126 3.10703 6.17243 4.13203 5.12287L5.13203 4.12328C5.50703 3.74844 6.13203 3.77343 6.55703 4.14827L8.00703 5.64765C8.53203 6.17243 8.30703 7.07205 7.63203 7.27197C7.15703 7.42191 6.83203 7.94669 6.98203 8.42149C7.23203 9.52103 8.63203 10.9205 9.68203 11.1953C10.157 11.2953 10.682 11.0454 10.857 10.5706C11.082 9.89588 11.982 9.69596 12.482 10.2207L13.932 11.7201C14.332 12.07 14.332 12.6947 13.957 13.1195ZM10.232 4.74802C10.132 4.74802 10.032 4.74802 9.93203 4.77301C9.75703 4.798 9.58203 4.64806 9.55703 4.47314C9.53203 4.29821 9.68203 4.12328 9.85703 4.09829C9.98203 4.0733 10.107 4.0733 10.232 4.0733C12.057 4.0733 13.557 5.57268 13.557 7.39692C13.557 7.52187 13.557 7.64681 13.532 7.77176C13.507 7.94669 13.332 8.09663 13.157 8.07164C12.982 8.04665 12.832 7.87172 12.857 7.69679C12.857 7.59683 12.882 7.49688 12.882 7.39692C12.907 5.94752 11.707 4.74802 10.232 4.74802ZM12.232 7.42191C12.232 7.59684 12.082 7.74677 11.907 7.74677C11.732 7.74677 11.582 7.59684 11.582 7.42191C11.582 6.69721 10.982 6.09746 10.257 6.09746C10.082 6.09746 9.93203 5.94752 9.93203 5.77259C9.93203 5.59767 10.082 5.44773 10.257 5.44773C11.332 5.42274 12.232 6.32237 12.232 7.42191ZM14.782 8.49646C14.732 8.67139 14.557 8.79634 14.357 8.74636C14.182 8.69638 14.082 8.52145 14.132 8.34652C14.207 8.04665 14.232 7.74677 14.232 7.42191C14.232 5.22282 12.432 3.42357 10.232 3.42357C10.132 3.42357 10.032 3.42357 9.93203 3.42357C9.75703 3.42357 9.58203 3.29863 9.58203 3.1237C9.58203 2.94877 9.70703 2.77384 9.88203 2.77384C10.007 2.77384 10.132 2.74885 10.232 2.74885C12.807 2.74885 14.907 4.84798 14.907 7.42191C14.907 7.77176 14.857 8.14661 14.782 8.49646Z" fill="white"/>
</svg>
